PathFileType	4	(X/Y/Z)	C:\My Captures\DataSMARTClinic\0056~004 ID\0056~aa~STRATO3\Standing_ID_04_STRATO.trc
DataRate	CameraRate	NumFrames	NumMarkers	Units	OrigDataRate	OrigDataStartFrame	OrigNumFrames
250.00	250.00	16	22	mm	250.00	324	2621
Frame#	Time	r.should			l.should			c7			r.asis			l.asis			sacrum			r.bar1			l.bar1			r.knee1			l.knee1			r.bar2			r.mall			l.bar2			l.mall			r.met			r.heel			l.heel			l.met			r.mallm			l.mallm			r.kneem			l.kneem			
		X1	Y1	Z1	X2	Y2	Z2	X3	Y3	Z3	X4	Y4	Z4	X5	Y5	Z5	X6	Y6	Z6	X7	Y7	Z7	X8	Y8	Z8	X9	Y9	Z9	X10	Y10	Z10	X11	Y11	Z11	X12	Y12	Z12	X13	Y13	Z13	X14	Y14	Z14	X15	Y15	Z15	X16	Y16	Z16	X17	Y17	Z17	X18	Y18	Z18	X19	Y19	Z19	X20	Y20	Z20	X21	Y21	Z21	X22	Y22	Z22	

323	1.292000	868.059039	1254.916310	360.803902	852.906764	1258.521080	79.407573	772.651196	1313.655972	219.452769	974.053741	882.775426	344.676793	976.151049	875.366509	105.657957	732.305229	907.480359	211.038455	868.207514	801.590204	427.730560	883.943558	771.267653	27.058221	902.095497	463.675708	410.763204	883.198857	471.945316	80.379844	879.761398	402.167737	417.737603	830.056190	70.923664	438.152254	866.444111	397.918224	79.665892	854.621589	71.948230	92.062443	969.444871	43.408800	433.801055	777.902186	53.585298	390.828580	797.209382	55.134110	124.046281	985.286474	43.923296	114.838779	857.684791	69.479927	361.577988	866.455436	72.629675	169.051945	895.873308	448.268950	262.954205	855.502129	446.824908	223.364174	
324	1.296000	868.054330	1254.927397	360.812902	852.909386	1258.521318	79.412349	772.666276	1313.651919	219.457597	974.037707	882.765174	344.683021	976.154506	875.355721	105.656341	732.291102	907.494247	211.038381	868.201554	801.580429	427.720368	883.913040	771.263719	27.056551	902.097046	463.671088	410.766691	883.174300	471.946210	80.378368	879.772067	402.166784	417.745680	830.042720	70.922360	438.164920	866.437554	397.919774	79.662383	854.767203	71.945280	92.132680	969.426632	43.411847	433.816463	777.890921	53.589620	390.851825	797.297418	54.659877	123.475835	985.276818	43.921694	114.839658	857.716084	69.487408	361.584961	866.455436	72.631754	169.062287	895.831048	448.254913	262.945116	855.489254	446.818888	223.369867	
325	1.300000	868.050337	1254.924178	360.810697	852.915823	1258.521795	79.417326	772.669911	1313.637972	219.461083	974.031329	882.764220	344.688654	976.121962	875.342786	105.654329	732.276320	907.486498	211.041451	868.197978	801.566720	427.702248	883.898914	771.259964	27.054863	902.082562	463.664323	410.770744	883.166313	471.944958	80.371358	879.774332	402.171522	417.756528	830.049753	70.921406	438.160658	866.420269	397.912145	79.660177	854.781151	71.921073	92.148878	969.420254	43.399423	433.805585	777.885556	53.574428	390.837073	797.324836	54.528594	123.324268	985.273719	43.917052	114.843793	857.714891	69.478206	361.594528	866.453469	72.626278	169.062570	895.850301	448.263407	262.944609	855.469823	446.820736	223.364890	
326	1.304000	868.045032	1254.916191	360.807359	852.939248	1258.523941	79.425320	772.696137	1313.630104	219.457030	974.023044	882.759869	344.690084	976.124227	875.359535	105.652429	732.269168	907.478094	211.037487	868.178487	801.600337	427.706301	883.908272	771.262527	27.051967	902.072847	463.664114	410.775632	883.175731	471.951932	80.375820	879.773378	402.168691	417.757869	830.050468	70.918307	438.162297	866.417348	397.904068	79.668216	854.772568	71.901649	92.158906	969.429612	43.393716	433.812261	777.887106	53.563539	390.826970	797.332406	54.500259	123.278081	985.286117	43.911092	114.847451	857.715249	69.472998	361.580789	866.455674	72.624654	169.060692	895.856977	448.270768	262.944549	855.458140	446.824998	223.363474	
327	1.308000	868.038893	1254.898906	360.813946	852.954745	1258.527756	79.432040	772.690415	1313.622117	219.462574	974.016309	882.758141	344.689548	976.134777	875.356913	105.654322	732.266426	907.475948	211.042210	868.161380	801.597178	427.711964	883.913577	771.263242	27.047399	902.064145	463.652372	410.772294	883.173347	471.959442	80.377862	879.756689	402.154952	417.751402	830.059230	70.909314	438.171446	866.412699	397.896528	79.669438	854.760468	71.894012	92.136830	969.422042	43.397255	433.814883	777.858734	53.581946	390.835345	797.316432	54.493576	123.272218	985.284209	43.906972	114.845417	857.707679	69.466427	361.586332	866.459131	72.617128	169.061199	895.852804	448.268712	262.933940	855.464220	446.824610	223.358333	
328	1.312000	868.043065	1254.886508	360.814661	852.955937	1258.528471	79.429947	768.828809	1314.052463	217.457339	974.007010	882.743001	344.689906	976.112962	875.347257	105.644852	732.271194	907.469571	211.035669	868.263900	801.657319	427.715629	883.896530	771.248460	27.046734	902.047455	463.653326	410.771787	883.171380	471.951991	80.371089	879.747927	402.152568	417.757928	830.051601	70.907250	438.167930	866.405189	397.901028	79.663552	854.495525	71.955130	92.039518	969.397187	43.389536	433.816195	777.878284	53.578679	390.834779	797.175229	55.358872	124.352440	985.279500	43.903410	114.846714	857.711911	69.462880	361.592084	866.465151	72.604418	169.060379	895.831645	448.264539	262.937307	855.451584	446.826696	223.353550	
329	1.316000	868.032217	1254.897952	360.818774	852.951765	1258.529902	79.432540	763.982177	1314.601898	214.962378	973.990142	882.721722	344.693363	976.106167	875.358880	105.639905	732.279360	907.469153	211.030811	868.250608	801.649392	427.703768	883.870661	771.249652	27.050719	902.041018	463.654995	410.771489	883.165836	471.942842	80.363706	879.746974	402.142614	417.759538	830.035269	70.909292	438.174933	866.416931	397.904277	79.664841	854.146063	72.023623	91.897085	969.421864	43.389995	433.822870	777.892113	53.584397	390.848458	797.004342	56.447905	125.700682	985.274374	43.903954	114.853606	857.724726	69.468193	361.601204	866.462886	72.604418	169.063687	895.823658	448.281556	262.944996	855.442643	446.832538	223.357022	
330	1.320000	868.010283	1254.890680	360.818565	852.963686	1258.527517	79.427473	770.493329	1313.854694	218.368515	973.981500	882.718444	344.695807	976.094604	875.362396	105.637312	732.271552	907.473028	211.030677	868.184030	801.645756	427.701801	883.856416	771.252871	27.046029	902.030468	463.641465	410.774499	883.163095	471.949160	80.369964	879.743934	402.144104	417.759866	830.033779	70.902973	438.181162	866.397619	397.905648	79.662830	854.374290	71.980081	91.977388	969.432116	43.386370	433.823049	777.867138	53.584777	390.856981	797.114611	55.839010	124.961972	985.273540	43.898053	114.856057	857.730031	69.483094	361.612231	866.455674	72.598360	169.062406	895.824790	448.279321	262.948006	855.434954	446.822524	223.354653	
331	1.324000	868.006945	1254.872322	360.821486	852.976263	1258.525252	79.430528	772.151947	1313.647747	219.218418	973.984838	882.720470	344.700634	976.115823	875.356019	105.639711	732.247770	907.476246	211.025953	868.246615	801.653624	427.705795	883.857012	771.254241	27.043100	902.029157	463.639170	410.776377	883.147836	471.949399	80.370203	879.729629	402.144194	417.760253	830.045223	70.897147	438.179553	866.384387	397.913754	79.661496	853.823662	72.107270	91.740876	969.420254	43.378878	433.830678	777.871609	53.563915	390.850395	796.855807	57.442226	126.945525	985.268354	43.897081	114.856623	857.716262	69.478229	361.606717	866.446197	72.595984	169.068083	895.802021	448.273808	262.929171	855.419755	446.819305	223.354906	
332	1.328000	868.019044	1254.869461	360.824674	852.983773	1258.532286	79.432361	772.580206	1313.594103	219.426557	973.963737	882.705629	344.701171	976.085067	875.341058	105.642535	732.232928	907.482386	211.035430	868.237793	801.645637	427.704692	883.868396	771.259129	27.041702	902.018368	463.632137	410.774350	883.148372	471.944749	80.367178	879.705071	402.142644	417.770743	830.044627	70.883043	438.182950	866.384685	397.912204	79.661533	854.003072	72.079569	91.802701	969.429255	43.385237	433.833301	777.895927	53.568549	390.837073	796.928048	56.963913	126.369983	985.271454	43.891206	114.859931	857.707918	69.472596	361.596256	866.451919	72.590619	169.068277	895.811975	448.273093	262.931734	855.416179	446.818829	223.352581	
333	1.332000	868.019342	1254.867196	360.833406	852.993608	1258.537292	79.434030	772.664964	1313.593626	219.472677	973.936677	882.692695	344.692469	976.071417	875.339687	105.650693	732.232690	907.483697	211.033553	868.193507	801.617861	427.702457	883.842707	771.242619	27.034428	902.019680	463.634461	410.786033	883.144200	471.950889	80.369152	879.706800	402.142882	417.766452	830.043435	70.883118	438.191354	866.382718	397.907585	79.658978	854.601264	71.942821	92.060998	969.418585	43.364536	433.830738	777.877688	53.552676	390.830874	797.223032	55.104781	124.067955	985.266566	43.892782	114.860155	857.694745	69.463402	361.598432	866.446197	72.587237	169.061854	895.813704	448.270500	262.935102	855.395615	446.811646	223.351806	
334	1.336000	868.013918	1254.872799	360.843092	852.996886	1258.541942	79.438746	772.701263	1313.603163	219.488010	973.932505	882.695675	344.699979	976.044536	875.334740	105.646059	732.230484	907.480955	211.024463	868.180633	801.610470	427.684158	883.824468	771.240652	27.035562	902.024865	463.638723	410.785407	883.145690	471.949816	80.366582	879.706681	402.135372	417.758942	830.045044	70.885144	438.194394	866.362154	397.899210	79.655781	854.739249	71.915999	92.133224	969.409466	43.356888	433.840692	777.880967	53.540155	390.828103	797.288418	54.630578	123.489216	985.260308	43.888677	114.864960	857.711256	69.479272	361.595690	866.437078	72.582975	169.064209	895.778060	448.250115	262.932122	855.396986	446.813107	223.352849	
335	1.340000	868.002057	1254.871488	360.842317	853.003383	1258.552194	79.442114	772.725165	1313.607693	219.488591	973.930836	882.701516	344.704211	976.022720	875.339091	105.640411	732.226014	907.482922	211.020485	868.129373	801.608264	427.677184	883.826256	771.254361	27.033307	902.011037	463.638961	410.777092	883.142769	471.953630	80.363534	879.700541	402.127087	417.762518	830.056190	70.879146	438.189358	866.360784	397.899866	79.659529	854.797482	71.894318	92.156723	969.411850	43.368142	433.836907	777.872145	53.557929	390.835166	797.314405	54.498255	123.336941	985.264599	43.889754	114.867344	857.717514	69.476731	361.606151	866.432548	72.581694	169.071645	895.791769	448.252171	262.930781	855.397105	446.812302	223.352060	
336	1.344000	868.012190	1254.874229	360.840172	853.017867	1258.559585	79.452097	768.855989	1314.051032	217.484683	973.934591	882.694960	344.699055	975.997388	875.326574	105.640426	732.220888	907.485962	211.018309	868.059635	801.598847	427.637190	883.814991	771.248043	27.026743	902.015090	463.641942	410.773337	883.133411	471.951097	80.355421	879.693747	402.130514	417.759538	830.048978	70.889458	438.186198	866.369247	397.908092	79.654805	854.524791	71.932957	92.037059	969.428897	43.389849	433.837116	777.855277	53.575132	390.846461	797.181070	55.340208	124.380052	985.268593	43.884873	114.862114	857.719362	69.478989	361.607313	866.432488	72.587751	169.072926	895.774782	448.263705	262.940854	855.391562	446.816862	223.356426	
337	1.348000	868.009448	1254.870653	360.851258	853.035927	1258.566737	79.460196	764.035285	1314.616203	214.969188	973.930478	882.687151	344.686866	976.000905	875.324368	105.640478	732.218504	907.483697	211.010173	868.009806	801.577628	427.635729	883.807778	771.244228	27.029291	902.014256	463.646621	410.770327	883.121610	471.949995	80.354251	879.695058	402.138859	417.763263	830.039442	70.894793	438.188761	866.365790	397.911370	79.655454	853.863180	72.090693	91.753751	969.427824	43.389667	433.838487	777.892768	53.572025	390.847921	796.876967	57.307895	126.800686	985.276461	43.885060	114.854708	857.713103	69.482937	361.603618	866.445363	72.593935	169.071645	895.775616	448.270917	262.938261	855.383575	446.819782	223.351747	
338	1.352000	868.020594	1254.878879	360.869616	853.045046	1258.576632	79.462484	770.544946	1313.889265	218.357593	973.920286	882.684052	344.689190	976.022601	875.328183	105.644330	732.212961	907.484770	211.004943	868.021965	801.584303	427.652031	883.804262	771.248102	27.030699	902.005672	463.653326	410.764426	883.120596	471.953034	80.361158	879.705071	402.141780	417.761564	830.041647	70.892915	438.180119	866.351664	397.913456	79.653963	853.985965	72.073340	91.808744	969.417810	43.391034	433.845043	777.918398	53.568870	390.828788	796.946049	56.923240	126.327515	985.280871	43.893579	114.854425	857.701659	69.480211	361.611277	866.439164	72.606713	169.070974	895.780027	448.273867	262.928367	855.386138	446.837813	223.349363	
